<?xml version="1.0" encoding="utf-8"?>
<!-- Generator: Adobe Illustrator 16.0.0, SVG Export Plug-In . SVG Version: 6.00 Build 0)  -->
<!DOCTYPE svg PUBLIC "-//W3C//DTD SVG 1.1//EN" "http://www.w3.org/Graphics/SVG/1.1/DTD/svg11.dtd">
<svg version="1.1" id="Layer_1" xmlns="http://www.w3.org/2000/svg" xmlns:xlink="http://www.w3.org/1999/xlink" x="0px" y="0px"
	 width="568.471px" height="187.491px" viewBox="0 0 568.471 187.491" enable-background="new 0 0 568.471 187.491"
	 xml:space="preserve">
<g>
	<g>
		<path fill="#929497" d="M72.15,136.556c18.949,0,34.737-7.614,45.332-19.315l4.267,5.944
			c-11.894,13.558-29.16,21.172-49.599,21.172c-37.159,0-65.207-28.048-65.207-65.011c0-36.969,28.048-65.023,65.207-65.023
			c20.439,0,38.016,7.854,49.903,21.421l-5.154,5.071c-10.583-11.704-25.8-18.682-44.749-18.682
			c-32.687,0-56.834,24.517-56.834,57.213C15.316,112.037,39.463,136.556,72.15,136.556z"/>
		<path fill="#929497" d="M152.225,10.612v111.821c0,10.596,5.577,14.502,12.832,14.502c5.186,0,8.72-1.677,12.62-4.279l1.665,6.683
			c-3.702,2.795-9.85,5.019-16.347,5.019c-11.142,0-18.942-5.938-18.942-20.613V10.612H152.225z"/>
		<path fill="#929497" d="M192.545,50.55c8.72-4.273,21.911-6.872,32.687-6.872c23.781,0,36.041,13.186,36.041,34.736v64.092H253.1
			v-12.26c-7.068,6.688-18.21,14.11-35.109,14.11c-21.545,0-35.109-11.515-35.109-29.725c0-24.33,20.986-34.357,48.493-34.357
			c7.795,0,15.782,1.111,21.726,2.972v-4.648c0-17.834-9.664-27.495-28.427-27.495c-11.136,0-20.688,2.224-29.606,6.68
			L192.545,50.55z M219.655,137.301c16.353,0,26.942-7.801,33.445-13.924V89.56c-4.459-1.484-12.819-2.603-20.62-2.603
			c-23.222,0-41.426,7.614-41.426,27.116C191.055,128.576,202.197,137.301,219.655,137.301z"/>
		<path fill="#929497" d="M289.333,45.342h8.167v22.11c5.956-13.931,15.794-23.774,31.222-23.774c9.291,0,15.042,3.158,20.433,7.801
			l-3.906,6.686c-4.453-3.9-10.402-6.686-17.271-6.686c-15.614,0-25.452,12.446-30.477,27.678v63.35h-8.167V45.342z"/>
		<path fill="#929497" d="M364.017,45.342h8.174v97.164h-8.174V45.342z"/>
		<path fill="#929497" d="M420.864,58.724v83.783h-8.173V58.724h-21.179v-7.062h21.179V41.073c0-18.387,8.534-32.314,29.353-32.314
			c12.271,0,21.029,7.555,25.109,12.198l-4.925,3.953c-4.205-4.056-9.043-8.537-19.62-8.537c-15.992,0-21.744,10.396-21.744,24.7
			v10.589h39.017v7.062H420.864z"/>
		<path fill="#929497" d="M562.798,45.342l-45.879,105.891c-7.254,16.905-15.241,28.054-32.898,28.054
			c-10.396,0-17.452-3.714-22.29-6.869l2.05-7.068c5.018,3.348,10.769,6.509,20.24,6.509c13.198,0,19.147-7.801,24.911-21.178
			l3.521-8.547l-46.99-95.297l7.304-3.677l43.594,90.241l39.09-90.744L562.798,45.342z"/>
		<path fill="#929497" d="M374.532,17.593c0,3.552-2.881,6.431-6.434,6.431c-3.547,0-6.422-2.878-6.422-6.431
			c0-3.55,2.875-6.429,6.422-6.429C371.651,11.165,374.532,14.043,374.532,17.593z"/>
	</g>
	<path fill="#929497" d="M144.052,10.612c0-2.257,1.826-4.089,4.086-4.089s4.086,1.832,4.086,4.089"/>
	<path fill="#929497" d="M289.333,45.718c0-2.258,1.826-4.08,4.099-4.08c2.248,0,4.068,1.822,4.068,4.08"/>
	<path fill="#929497" d="M364.017,45.342c0-2.251,1.826-4.083,4.081-4.083c2.267,0,4.093,1.832,4.093,4.083"/>
	<path fill="#929497" d="M465.532,46.963c-1.056-2.087-0.267-4.596,1.752-5.617c2.006-1.016,4.496-0.143,5.539,1.943"/>
	<path fill="#929497" d="M562.395,46.371c1.006-2.003,0.26-4.416-1.678-5.385c-1.925-0.976-4.304-0.143-5.328,1.86"/>
	<path fill="#929497" d="M122.053,35.744c1.354,1.472,1.255,3.782-0.217,5.14c-1.479,1.369-3.783,1.276-5.137-0.199"/>
	<path fill="#929497" d="M195.253,57.783c-1.987,0.717-4.187-0.339-4.913-2.345c-0.727-2.003,0.311-4.205,2.305-4.922"/>
	<path fill="#929497" d="M467.153,20.956c1.1,1.323,0.851,3.236-0.565,4.273c-1.416,1.031-3.453,0.798-4.559-0.531"/>
</g>
</svg>
