<?xml version="1.0" encoding="utf-8"?>
<!-- Generator: Adobe Illustrator 16.0.0, SVG Export Plug-In . SVG Version: 6.00 Build 0)  -->
<!DOCTYPE svg PUBLIC "-//W3C//DTD SVG 1.1//EN" "http://www.w3.org/Graphics/SVG/1.1/DTD/svg11.dtd">
<svg version="1.1" id="Layer_1" xmlns="http://www.w3.org/2000/svg" xmlns:xlink="http://www.w3.org/1999/xlink" x="0px" y="0px"
	 width="78.171px" height="78.172px" viewBox="0 0 78.171 78.172" enable-background="new 0 0 78.171 78.172" xml:space="preserve">
<path fill="#FFFFFF" d="M0,0v78.172h78.171V0H0z M55.66,55.623c-0.295,0.303-0.685,0.455-1.075,0.455
	c-0.377,0-0.755-0.143-1.047-0.426L39.046,41.543l-14.46,12.961c-0.286,0.256-0.644,0.383-1,0.383c-0.413,0-0.821-0.168-1.118-0.5
	c-0.553-0.617-0.501-1.564,0.116-2.117l14.304-12.821l-14.35-13.971c-0.593-0.578-0.605-1.528-0.028-2.121
	c0.581-0.594,1.528-0.605,2.121-0.029l14.493,14.11l14.46-12.961c0.617-0.555,1.564-0.501,2.118,0.116
	c0.553,0.617,0.5,1.565-0.116,2.118l-14.304,12.82l14.349,13.971C56.224,54.08,56.237,55.031,55.66,55.623z"/>
</svg>
