<?xml version="1.0" encoding="utf-8"?>
<!-- Generator: Adobe Illustrator 16.0.0, SVG Export Plug-In . SVG Version: 6.00 Build 0)  -->
<!DOCTYPE svg PUBLIC "-//W3C//DTD SVG 1.1//EN" "http://www.w3.org/Graphics/SVG/1.1/DTD/svg11.dtd">
<svg version="1.1" id="Layer_1" xmlns="http://www.w3.org/2000/svg" xmlns:xlink="http://www.w3.org/1999/xlink" x="0px" y="0px"
	 width="60px" height="60px" viewBox="0 0 60 60" enable-background="new 0 0 60 60" xml:space="preserve">
<g>
	<g>
		<rect fill="none" width="60" height="60"/>
	</g>
	<g>
		<path fill-rule="evenodd" clip-rule="evenodd" fill="#FFFFFF" d="M35.559,18.71c0,2.154,0,4.267,0,6.468c-1.051,0-2.087,0-3.205,0
			c0-2.128,0-4.266,0-6.468C33.412,18.71,34.451,18.71,35.559,18.71z"/>
		<path fill="#FFFFFF" d="M44.602,23.106c0.017-1.369-0.402-2.441-1.314-3.378c-0.928-0.952-1.869-1.892-2.822-2.822
			c-0.936-0.911-2.008-1.331-3.377-1.315c-5.738,0.065-11.479,0.089-17.217-0.005c-2.089-0.034-3.609,0.572-4.48,2.522
			c0,8.062,0,16.124,0,24.187c0.525,1.146,1.361,1.984,2.508,2.51c8.064,0,16.124,0,24.188,0c1.951-0.871,2.557-2.391,2.521-4.48
			C44.514,34.585,44.537,28.844,44.602,23.106z M37.168,40.214H21.782c-0.192,0-0.35-0.154-0.35-0.35c0-0.192,0.157-0.35,0.35-0.35
			h15.386c0.193,0,0.35,0.157,0.35,0.35C37.518,40.06,37.361,40.214,37.168,40.214z M37.168,37.067H21.782
			c-0.192,0-0.35-0.156-0.35-0.35s0.157-0.349,0.35-0.349h15.386c0.193,0,0.35,0.155,0.35,0.349S37.361,37.067,37.168,37.067z
			 M37.168,33.921H21.782c-0.192,0-0.35-0.158-0.35-0.352c0-0.191,0.157-0.349,0.35-0.349h15.386c0.193,0,0.35,0.157,0.35,0.349
			C37.518,33.763,37.361,33.921,37.168,33.921z M37.168,30.774H21.782c-0.192,0-0.35-0.158-0.35-0.35
			c0-0.193,0.157-0.352,0.35-0.352h15.386c0.193,0,0.35,0.159,0.35,0.352C37.518,30.616,37.361,30.774,37.168,30.774z M37.84,25.26
			c-0.01,1.27-0.301,1.55-1.559,1.558c-2.313,0.013-4.631,0.002-6.947,0.002c-2.202,0-4.405,0.006-6.608-0.001
			c-1.437-0.006-1.692-0.247-1.699-1.636c-0.011-2.28-0.011-4.559,0-6.838c0.007-1.317,0.31-1.625,1.606-1.629
			c4.52-0.008,9.038-0.008,13.557,0c1.322,0.002,1.641,0.306,1.652,1.594C37.859,20.627,37.859,22.944,37.84,25.26z"/>
	</g>
</g>
</svg>
