<?xml version="1.0" encoding="utf-8"?>
<!-- Generator: Adobe Illustrator 16.0.0, SVG Export Plug-In . SVG Version: 6.00 Build 0)  -->
<!DOCTYPE svg PUBLIC "-//W3C//DTD SVG 1.1//EN" "http://www.w3.org/Graphics/SVG/1.1/DTD/svg11.dtd">
<svg version="1.1" id="Layer_1" xmlns="http://www.w3.org/2000/svg" xmlns:xlink="http://www.w3.org/1999/xlink" x="0px" y="0px"
	 width="170px" height="169.957px" viewBox="-24.719 0 170 169.957" enable-background="new -24.719 0 170 169.957"
	 xml:space="preserve">
<linearGradient id="SVGID_1_" gradientUnits="userSpaceOnUse" x1="13.2073" y1="156.9492" x2="102.2069" y2="2.7982" gradientTransform="matrix(1 0 0 -1 8.5 145.957)">
	<stop  offset="0" style="stop-color:#FFFFFF"/>
	<stop  offset="0.19" style="stop-color:#FFFFFF;stop-opacity:0.9"/>
	<stop  offset="0.588" style="stop-color:#FFFFFF;stop-opacity:0.8"/>
	<stop  offset="1" style="stop-color:#FFFFFF;stop-opacity:0.7"/>
</linearGradient>
<path fill="url(#SVGID_1_)" d="M63.575,169.957c-1.094,0-1.971-0.684-2.426-1.324L36.217,135.88c-0.722-0.894-1.587-3.021-0.446-5.6
	l38.554-90.688H29.7c-2.272,0-4.162-1.673-4.518-2.01l-0.22-0.242L1.352,6.32C0.876,5.787-0.565,3.96,0.243,2.083
	C0.837,0.7,2.308,0,4.612,0h84.906c2.294,0,3.323,0.977,3.783,1.797c0.888,1.582,0.114,3.286-0.21,3.874L80.37,35.593h35.941
	c0.464,0.01,2.586,0.147,3.688,1.848c0.493,0.764,0.915,2.07,0.12,3.96L66.486,167.578
	C65.683,169.641,64.316,169.958,63.575,169.957L63.575,169.957z M78.67,39.592l-39.23,92.28c-0.42,0.952-0.134,1.452-0.072,1.542
	l23.93,31.439l53.14-125.01c0.033-0.082,0.061-0.15,0.076-0.21c-0.104-0.025-0.212-0.042-0.25-0.043L78.67,39.592L78.67,39.592z
	 M28.03,34.762c0.438,0.37,1.202,0.83,1.669,0.83h46.324L89.453,4H4.613L28.03,34.762L28.03,34.762z"/>
</svg>
