<?xml version="1.0" encoding="utf-8"?>
<!-- Generator: Adobe Illustrator 16.0.0, SVG Export Plug-In . SVG Version: 6.00 Build 0)  -->
<!DOCTYPE svg PUBLIC "-//W3C//DTD SVG 1.1//EN" "http://www.w3.org/Graphics/SVG/1.1/DTD/svg11.dtd">
<svg version="1.1" id="Layer_1" xmlns="http://www.w3.org/2000/svg" xmlns:xlink="http://www.w3.org/1999/xlink" x="0px" y="0px"
	 width="27.193px" height="33.015px" viewBox="0 0 27.193 33.015" enable-background="new 0 0 27.193 33.015" xml:space="preserve">
<g>
	<g>
		<g>
			<path fill="#212120" d="M0.822,32.769c-0.106,0-0.212-0.034-0.301-0.101c-0.15-0.111-0.225-0.299-0.193-0.484l1.412-8.219
				c0.015-0.08,0.047-0.157,0.099-0.223L19.994,0.41c0.083-0.105,0.205-0.174,0.34-0.189c0,0,0.2-0.023,0.535-0.023
				c1.271,0,5.471,0.376,6.141,5.215c0.02,0.134-0.018,0.27-0.1,0.376L9.035,28.76c-0.046,0.06-0.105,0.108-0.174,0.142
				l-7.818,3.816C0.971,32.752,0.897,32.769,0.822,32.769z M2.705,24.258L1.48,31.391l6.838-3.337l17.671-22.71
				c-0.628-3.737-3.777-4.146-5.12-4.146c-0.087,0-0.162,0.001-0.224,0.004L2.705,24.258z"/>
		</g>
		<g>
			<path fill="#212120" d="M8.282,28.829c-0.06,0-0.118-0.014-0.173-0.042c-0.184-0.096-0.256-0.322-0.16-0.506
				c0.333-0.641,0.141-1.271-0.143-1.44c-0.303-0.177-0.643,0.224-0.79,0.425C7,27.289,6.982,27.312,6.964,27.337
				c-0.12,0.164-0.354,0.2-0.518,0.083c-0.168-0.118-0.209-0.348-0.094-0.517c0.018-0.024,0.033-0.048,0.049-0.071
				c0.35-0.525,0.162-1.033-0.189-1.312c-0.321-0.256-0.859-0.368-1.307,0.158c-0.124,0.146-0.334,0.173-0.494,0.069
				c-0.156-0.104-0.211-0.312-0.127-0.481c0.259-0.514,0.227-0.967-0.091-1.243c-0.325-0.285-0.991-0.38-1.681,0.091
				c-0.172,0.117-0.404,0.074-0.521-0.098c-0.115-0.172-0.072-0.404,0.098-0.521c0.874-0.596,1.941-0.611,2.599-0.036
				c0.339,0.296,0.514,0.702,0.518,1.152c0.537-0.152,1.084,0.013,1.474,0.321c0.348,0.277,0.599,0.695,0.648,1.162
				c0.324-0.098,0.627-0.037,0.862,0.104c0.622,0.371,0.94,1.436,0.425,2.43C8.548,28.756,8.417,28.829,8.282,28.829z"/>
		</g>
		<g>
			<path fill="#212120" d="M2.958,30.969c-0.006-0.426-0.129-0.74-0.377-0.961c-0.512-0.455-1.387-0.372-1.397-0.37l-0.079-0.746
				c0.047-0.003,1.208-0.123,1.971,0.552c0.41,0.364,0.623,0.874,0.633,1.516L2.958,30.969z"/>
		</g>
		<g>
			<path fill="#212120" d="M24.111,8.665c-0.184,0-0.346-0.136-0.37-0.324c-0.646-4.666-5.485-4.419-5.688-4.403
				c-0.194,0.007-0.383-0.145-0.396-0.351C17.643,3.38,17.8,3.202,18.006,3.189c0.059,0,5.737-0.295,6.476,5.05
				c0.029,0.205-0.113,0.395-0.318,0.423C24.146,8.664,24.128,8.665,24.111,8.665z"/>
		</g>
		<g>
			<path fill="#212120" d="M22.809,10.339c-0.185,0-0.346-0.136-0.372-0.324c-0.645-4.662-5.484-4.419-5.686-4.405
				c-0.2,0.015-0.385-0.144-0.398-0.352c-0.012-0.207,0.146-0.384,0.352-0.397c0.061,0,5.736-0.294,6.476,5.052
				c0.028,0.205-0.114,0.395-0.319,0.423C22.843,10.338,22.826,10.339,22.809,10.339z"/>
		</g>
		<g>
			<path fill="#212120" d="M5.134,25.034c-0.107,0-0.215-0.034-0.307-0.105C4.609,24.76,4.57,24.445,4.74,24.227l14.309-18.39
				c0.168-0.219,0.484-0.258,0.701-0.087c0.219,0.169,0.258,0.483,0.088,0.702L5.529,24.842C5.429,24.968,5.283,25.034,5.134,25.034
				z"/>
		</g>
		<g>
			<path fill="#212120" d="M7.176,26.622c-0.107,0-0.216-0.034-0.308-0.105c-0.219-0.169-0.258-0.483-0.087-0.702L21.089,7.426
				c0.17-0.218,0.485-0.258,0.703-0.087c0.217,0.169,0.256,0.484,0.087,0.702L7.57,26.43C7.472,26.556,7.325,26.622,7.176,26.622z"
				/>
		</g>
	</g>
	<rect x="-16.917" y="-13.267" fill="none" width="60" height="60"/>
</g>
</svg>
